<?xml version="1.0" encoding="utf-8" ?>
<svg baseProfile="tiny" height="100%" version="1.2" width="100%" xmlns="http://www.w3.org/2000/svg" xmlns:ev="http://www.w3.org/2001/xml-events" xmlns:xlink="http://www.w3.org/1999/xlink"><defs /><rect fill="black" height="7.5cm" width="7.5cm" x="0cm" y="0cm" /><rect fill="white" height="6.33865691046cm" width="6.33865691046cm" x="0.580671544768cm" y="0.580671544768cm" /><rect fill="black" height="5.35714285714cm" width="5.35714285714cm" x="1.07142857143cm" y="1.07142857143cm" /><rect fill="white" height="4.5276120789cm" width="4.5276120789cm" x="1.48619396055cm" y="1.48619396055cm" /><rect fill="black" height="3.82653061224cm" width="3.82653061224cm" x="1.83673469388cm" y="1.83673469388cm" /><rect fill="black" height="3.42255302679cm" width="3.42255302679cm" x="2.03872348661cm" y="2.03872348661cm" /><rect fill="white" height="1.14085100893cm" width="1.14085100893cm" x="2.03872348661cm" y="2.03872348661cm" /><rect fill="white" height="1.14085100893cm" width="1.14085100893cm" x="2.03872348661cm" y="3.17957449554cm" /><rect fill="black" height="1.14085100893cm" width="1.14085100893cm" x="2.03872348661cm" y="4.32042550446cm" /><rect fill="black" height="1.14085100893cm" width="1.14085100893cm" x="3.17957449554cm" y="2.03872348661cm" /><rect fill="black" height="1.14085100893cm" width="1.14085100893cm" x="3.17957449554cm" y="3.17957449554cm" /><rect fill="black" height="1.14085100893cm" width="1.14085100893cm" x="3.17957449554cm" y="4.32042550446cm" /><rect fill="black" height="1.14085100893cm" width="1.14085100893cm" x="4.32042550446cm" y="2.03872348661cm" /><rect fill="black" height="1.14085100893cm" width="1.14085100893cm" x="4.32042550446cm" y="3.17957449554cm" /><rect fill="black" height="1.14085100893cm" width="1.14085100893cm" x="4.32042550446cm" y="4.32042550446cm" /><rect fill="black" height="3.42255302679cm" width="3.42255302679cm" x="8cm" y="8cm" /><rect fill="white" height="3.0612244898cm" width="3.0612244898cm" x="8.18066426849cm" y="8.18066426849cm" /><rect fill="black" height="2.73804242143cm" width="2.73804242143cm" x="8.34225530268cm" y="8.34225530268cm" /><rect fill="white" height="2.44897959184cm" width="2.44897959184cm" x="8.48678671747cm" y="8.48678671747cm" /><rect fill="black" height="2.19043393714cm" width="2.19043393714cm" x="8.61605954482cm" y="8.61605954482cm" /><rect fill="black" height="1.95918367347cm" width="1.95918367347cm" x="8.73168467666cm" y="8.73168467666cm" /><rect fill="white" height="0.65306122449cm" width="0.65306122449cm" x="8.73168467666cm" y="8.73168467666cm" /><rect fill="white" height="0.65306122449cm" width="0.65306122449cm" x="8.73168467666cm" y="9.38474590115cm" /><rect fill="black" height="0.65306122449cm" width="0.65306122449cm" x="8.73168467666cm" y="10.0378071256cm" /><rect fill="black" height="0.65306122449cm" width="0.65306122449cm" x="9.38474590115cm" y="8.73168467666cm" /><rect fill="black" height="0.65306122449cm" width="0.65306122449cm" x="9.38474590115cm" y="9.38474590115cm" /><rect fill="black" height="0.65306122449cm" width="0.65306122449cm" x="9.38474590115cm" y="10.0378071256cm" /><rect fill="black" height="0.65306122449cm" width="0.65306122449cm" x="10.0378071256cm" y="8.73168467666cm" /><rect fill="black" height="0.65306122449cm" width="0.65306122449cm" x="10.0378071256cm" y="9.38474590115cm" /><rect fill="black" height="0.65306122449cm" width="0.65306122449cm" x="10.0378071256cm" y="10.0378071256cm" /></svg>